<?xml version="1.0" standalone="no"?>
<!DOCTYPE svg PUBLIC "-//W3C//DTD SVG 20010904//EN"
 "http://www.w3.org/TR/2001/REC-SVG-20010904/DTD/svg10.dtd">
<svg version="1.0" xmlns="http://www.w3.org/2000/svg"
 width="203.000000pt" height="128.000000pt" viewBox="0 0 203.000000 128.000000"
 preserveAspectRatio="xMidYMid meet">

<g transform="translate(0.000000,128.000000) scale(0.100000,-0.100000)"
fill="#000000" stroke="none">
<path d="M248 1030 c-74 -22 -141 -91 -167 -173 -16 -48 -16 -186 0 -234 30
-93 111 -166 196 -179 131 -19 248 47 269 155 l7 31 -46 0 c-43 0 -47 -3 -62
-34 -21 -44 -53 -65 -107 -72 -93 -11 -157 61 -166 187 -6 84 10 144 50 193
34 41 89 62 141 52 52 -10 76 -34 85 -86 7 -44 8 -45 50 -48 l42 -3 0 69 0 69
-39 28 c-22 15 -57 33 -78 41 -42 15 -133 17 -175 4z"/>
<path d="M804 1021 c-93 -42 -139 -140 -139 -297 0 -92 2 -105 30 -158 39 -76
92 -115 167 -123 64 -6 115 8 158 44 l30 25 0 -46 c0 -59 -25 -120 -58 -142
-33 -22 -129 -22 -188 -1 l-41 15 -12 -40 c-7 -22 -11 -41 -9 -43 14 -13 124
-35 177 -35 75 0 131 22 173 66 50 54 53 70 58 374 l5 285 35 11 c29 10 36 17
38 43 l3 31 -85 0 -86 0 0 -37 0 -37 -27 27 c-60 57 -153 72 -229 38z m187
-87 c51 -26 59 -52 59 -194 0 -105 -3 -136 -16 -156 -23 -35 -68 -56 -119 -56
-99 0 -147 66 -147 197 1 99 17 153 58 192 47 44 101 49 165 17z"/>
</g>
</svg>
